<svg xmlns="http://www.w3.org/2000/svg" viewBox="0 0 24 24" id="content-credentials-color" aria-hidden="true" role="none" data-supported-dps="24x24">
  <path d="M1.25 12C1.25 6.06 6.06 1.25 12 1.25S22.75 6.06 22.75 12v10.75H12C6.06 22.75 1.25 17.94 1.25 12z" fill="#fff"/>
  <path d="M21.92 12v9.92H12c-5.48 0-9.92-4.44-9.92-9.92S6.52 2.08 12 2.08s9.92 4.44 9.92 9.92zM0 12C0 5.38 5.38 0 12 0s12 5.38 12 12v12H12C5.38 24 0 18.62 0 12zm4.78.48c0 2.47 1.67 4.56 4.32 4.56 2.18 0 3.66-1.44 4.02-3.32h-2.16c-.28.86-.97 1.39-1.86 1.39-1.34 0-2.22-1.06-2.22-2.63s.88-2.63 2.22-2.63c.86 0 1.55.49 1.84 1.31h2.17c-.38-1.84-1.85-3.24-4.01-3.24-2.66 0-4.32 2.09-4.32 4.56zm11.23-4.32h-2.04v8.65h2.12V12.3c0-.85.24-1.4.65-1.75.36-.32.83-.49 1.6-.49h.54v-2h-.53c-1.12 0-1.86.41-2.34 1.03v-.94.01z" fill="#141414" fill-rule="evenodd"/>
</svg>
